<svg xmlns="http://www.w3.org/2000/svg" xmlns:xlink="http://www.w3.org/1999/xlink" version="1.1" width="256" height="256" viewBox="0 0 256 256" xml:space="preserve">

<defs>
</defs>
<g style="stroke: none; stroke-width: 0; stroke-dasharray: none; stroke-linecap: butt; stroke-linejoin: miter; stroke-miterlimit: 10; fill: none; fill-rule: nonzero; opacity: 1;" transform="translate(1.4065934065934016 1.4065934065934016) scale(2.81 2.81)" >
	<path d="M 81.248 11.629 h -8.315 V 6.405 c 0 -1.104 -0.896 -2 -2 -2 s -2 0.896 -2 2 v 5.225 H 47 V 6.405 c 0 -1.104 -0.896 -2 -2 -2 s -2 0.896 -2 2 v 5.225 H 21.067 V 6.405 c 0 -1.104 -0.896 -2 -2 -2 s -2 0.896 -2 2 v 5.225 H 8.752 C 3.926 11.629 0 15.556 0 20.382 v 7.917 v 42.274 c 0 4.826 3.926 8.753 8.752 8.753 h 9.515 c 1.104 0 2 -0.896 2 -2 s -0.896 -2 -2 -2 H 8.752 C 6.132 75.326 4 73.194 4 70.573 V 30.299 h 82 v 40.274 c 0 2.621 -2.132 4.753 -4.752 4.753 h -9.516 c -1.104 0 -2 0.896 -2 2 s 0.896 2 2 2 h 9.516 c 4.826 0 8.752 -3.927 8.752 -8.753 V 28.299 v -7.917 C 90 15.556 86.074 11.629 81.248 11.629 z M 4 26.299 v -5.917 c 0 -2.621 2.132 -4.752 4.752 -4.752 h 72.496 c 2.62 0 4.752 2.132 4.752 4.752 v 5.917 H 4 z" style="stroke: none; stroke-width: 1; stroke-dasharray: none; stroke-linecap: butt; stroke-linejoin: miter; stroke-miterlimit: 10; fill: rgb(0,0,0); fill-rule: nonzero; opacity: 1;" transform=" matrix(1 0 0 1 0 0) " stroke-linecap="round" />
	<path d="M 45 34.53 c -14.079 0 -25.533 11.454 -25.533 25.533 c 0 14.078 11.454 25.532 25.533 25.532 c 14.078 0 25.532 -11.454 25.532 -25.532 C 70.532 45.984 59.078 34.53 45 34.53 z M 45 81.595 c -11.873 0 -21.533 -9.659 -21.533 -21.532 S 33.127 38.53 45 38.53 s 21.532 9.66 21.532 21.533 S 56.873 81.595 45 81.595 z" style="stroke: none; stroke-width: 1; stroke-dasharray: none; stroke-linecap: butt; stroke-linejoin: miter; stroke-miterlimit: 10; fill: rgb(0,0,0); fill-rule: nonzero; opacity: 1;" transform=" matrix(1 0 0 1 0 0) " stroke-linecap="round" />
	<path d="M 54.255 51.52 L 41.59 65.77 l -5.875 -6.321 c -0.751 -0.808 -2.017 -0.855 -2.826 -0.104 c -0.809 0.752 -0.855 2.018 -0.104 2.826 l 7.374 7.934 c 0.378 0.407 0.909 0.639 1.465 0.639 c 0.007 0 0.015 0 0.022 0 c 0.563 -0.007 1.098 -0.25 1.473 -0.672 l 14.126 -15.896 c 0.733 -0.825 0.659 -2.089 -0.167 -2.823 C 56.253 50.618 54.989 50.692 54.255 51.52 z" style="stroke: none; stroke-width: 1; stroke-dasharray: none; stroke-linecap: butt; stroke-linejoin: miter; stroke-miterlimit: 10; fill: rgb(0,0,0); fill-rule: nonzero; opacity: 1;" transform=" matrix(1 0 0 1 0 0) " stroke-linecap="round" />
</g>
</svg>