<svg xmlns="http://www.w3.org/2000/svg" xmlns:xlink="http://www.w3.org/1999/xlink" version="1.1" width="256" height="256" viewBox="0 0 256 256" xml:space="preserve">

<defs>
</defs>
<g style="stroke: none; stroke-width: 0; stroke-dasharray: none; stroke-linecap: butt; stroke-linejoin: miter; stroke-miterlimit: 10; fill: none; fill-rule: nonzero; opacity: 1;" transform="translate(1.4065934065934016 1.4065934065934016) scale(2.81 2.81)" >
	<path d="M 45 27.445 c -4.118 0 -7.467 -3.35 -7.467 -7.467 v -2.051 c 0 -4.118 3.35 -7.467 7.467 -7.467 c 4.117 0 7.467 3.35 7.467 7.467 v 2.051 C 52.467 24.095 49.117 27.445 45 27.445 z M 45 12.459 c -3.015 0 -5.467 2.453 -5.467 5.467 v 2.051 c 0 3.015 2.453 5.467 5.467 5.467 s 5.467 -2.453 5.467 -5.467 v -2.051 C 50.467 14.912 48.015 12.459 45 12.459 z" style="stroke: none; stroke-width: 1; stroke-dasharray: none; stroke-linecap: butt; stroke-linejoin: miter; stroke-miterlimit: 10; fill: rgb(0,0,0); fill-rule: nonzero; opacity: 1;" transform=" matrix(1 0 0 1 0 0) " stroke-linecap="round" />
	<path d="M 46.799 79.541 h -3.598 c -2.037 0 -3.707 -1.53 -3.886 -3.56 l -0.637 -8.306 h -4.515 c -0.282 0 -0.55 -0.119 -0.74 -0.327 s -0.282 -0.486 -0.256 -0.767 l 1.178 -12.45 c -1.027 -1.437 -1.567 -3.119 -1.567 -4.892 V 37.845 c 0 -4.664 3.794 -8.458 8.458 -8.458 h 7.529 c 4.663 0 8.457 3.794 8.457 8.458 V 49.24 c 0 1.772 -0.541 3.455 -1.567 4.892 l 1.178 12.45 c 0.027 0.28 -0.066 0.559 -0.256 0.767 s -0.458 0.327 -0.739 0.327 h -4.515 l -0.636 8.294 C 50.507 78.011 48.836 79.541 46.799 79.541 z M 35.262 65.676 h 4.342 c 0.522 0 0.957 0.402 0.997 0.924 l 0.707 9.218 c 0.086 0.978 0.9 1.724 1.893 1.724 h 3.598 c 0.993 0 1.808 -0.746 1.895 -1.735 l 0.705 -9.206 c 0.04 -0.521 0.475 -0.924 0.997 -0.924 h 4.342 l -1.11 -11.741 c -0.024 -0.256 0.051 -0.511 0.21 -0.713 c 0.906 -1.148 1.385 -2.525 1.385 -3.981 V 37.845 c 0 -3.561 -2.896 -6.458 -6.457 -6.458 h -7.529 c -3.561 0 -6.458 2.897 -6.458 6.458 V 49.24 c 0 1.456 0.479 2.833 1.385 3.981 c 0.159 0.202 0.235 0.457 0.21 0.713 L 35.262 65.676 z" style="stroke: none; stroke-width: 1; stroke-dasharray: none; stroke-linecap: butt; stroke-linejoin: miter; stroke-miterlimit: 10; fill: rgb(0,0,0); fill-rule: nonzero; opacity: 1;" transform=" matrix(1 0 0 1 0 0) " stroke-linecap="round" />
	<path d="M 77.778 27.445 c -4.117 0 -7.467 -3.35 -7.467 -7.467 v -2.051 c 0 -4.118 3.35 -7.467 7.467 -7.467 c 4.118 0 7.468 3.35 7.468 7.467 v 2.051 C 85.246 24.095 81.896 27.445 77.778 27.445 z M 77.778 12.459 c -3.015 0 -5.467 2.453 -5.467 5.467 v 2.051 c 0 3.015 2.452 5.467 5.467 5.467 s 5.468 -2.453 5.468 -5.467 v -2.051 C 83.246 14.912 80.793 12.459 77.778 12.459 z" style="stroke: none; stroke-width: 1; stroke-dasharray: none; stroke-linecap: butt; stroke-linejoin: miter; stroke-miterlimit: 10; fill: rgb(0,0,0); fill-rule: nonzero; opacity: 1;" transform=" matrix(1 0 0 1 0 0) " stroke-linecap="round" />
	<path d="M 79.577 79.541 h -3.598 c -2.037 0 -3.707 -1.53 -3.886 -3.56 l -1.457 -18.993 c -3.064 -1.334 -5.08 -4.368 -5.08 -7.748 V 37.845 c 0 -4.664 3.794 -8.458 8.458 -8.458 h 7.528 c 4.663 0 8.457 3.794 8.457 8.458 V 49.24 c 0 3.38 -2.016 6.414 -5.08 7.748 L 83.465 75.97 C 83.285 78.011 81.614 79.541 79.577 79.541 z M 74.015 31.388 c -3.561 0 -6.458 2.897 -6.458 6.458 V 49.24 c 0 2.751 1.75 5.202 4.355 6.1 c 0.377 0.13 0.641 0.472 0.671 0.869 l 1.504 19.608 c 0.086 0.978 0.9 1.724 1.893 1.724 h 3.598 c 0.993 0 1.808 -0.746 1.895 -1.735 l 1.502 -19.597 c 0.03 -0.397 0.294 -0.739 0.671 -0.869 C 86.25 54.442 88 51.991 88 49.24 V 37.845 c 0 -3.561 -2.896 -6.458 -6.457 -6.458 H 74.015 z" style="stroke: none; stroke-width: 1; stroke-dasharray: none; stroke-linecap: butt; stroke-linejoin: miter; stroke-miterlimit: 10; fill: rgb(0,0,0); fill-rule: nonzero; opacity: 1;" transform=" matrix(1 0 0 1 0 0) " stroke-linecap="round" />
	<path d="M 12.222 27.445 c -4.118 0 -7.467 -3.35 -7.467 -7.467 v -2.051 c 0 -4.118 3.35 -7.467 7.467 -7.467 c 4.117 0 7.467 3.35 7.467 7.467 v 2.051 C 19.688 24.095 16.339 27.445 12.222 27.445 z M 12.222 12.459 c -3.015 0 -5.467 2.453 -5.467 5.467 v 2.051 c 0 3.015 2.453 5.467 5.467 5.467 c 3.014 0 5.467 -2.453 5.467 -5.467 v -2.051 C 17.688 14.912 15.236 12.459 12.222 12.459 z" style="stroke: none; stroke-width: 1; stroke-dasharray: none; stroke-linecap: butt; stroke-linejoin: miter; stroke-miterlimit: 10; fill: rgb(0,0,0); fill-rule: nonzero; opacity: 1;" transform=" matrix(1 0 0 1 0 0) " stroke-linecap="round" />
	<path d="M 14.021 79.541 h -3.598 c -2.037 0 -3.708 -1.53 -3.886 -3.56 L 5.08 56.988 C 2.016 55.654 0 52.62 0 49.24 V 37.845 c 0 -4.664 3.794 -8.458 8.458 -8.458 h 7.528 c 4.663 0 8.457 3.794 8.457 8.458 V 49.24 c 0 3.38 -2.016 6.414 -5.08 7.748 L 17.908 75.97 C 17.728 78.011 16.058 79.541 14.021 79.541 z M 8.458 31.388 C 4.897 31.388 2 34.285 2 37.845 V 49.24 c 0 2.751 1.75 5.202 4.355 6.1 c 0.377 0.13 0.641 0.472 0.671 0.869 l 1.503 19.608 c 0.086 0.978 0.9 1.724 1.893 1.724 h 3.598 c 0.993 0 1.807 -0.746 1.894 -1.735 l 1.502 -19.597 c 0.03 -0.397 0.294 -0.739 0.671 -0.869 c 2.604 -0.897 4.354 -3.349 4.354 -6.1 V 37.845 c 0 -3.561 -2.896 -6.458 -6.457 -6.458 H 8.458 z" style="stroke: none; stroke-width: 1; stroke-dasharray: none; stroke-linecap: butt; stroke-linejoin: miter; stroke-miterlimit: 10; fill: rgb(0,0,0); fill-rule: nonzero; opacity: 1;" transform=" matrix(1 0 0 1 0 0) " stroke-linecap="round" />
</g>
</svg>