<svg xmlns="http://www.w3.org/2000/svg" xmlns:xlink="http://www.w3.org/1999/xlink" version="1.1" width="256" height="256" viewBox="0 0 256 256" xml:space="preserve">

<defs>
</defs>
<g style="stroke: none; stroke-width: 0; stroke-dasharray: none; stroke-linecap: butt; stroke-linejoin: miter; stroke-miterlimit: 10; fill: none; fill-rule: nonzero; opacity: 1;" transform="translate(1.4065934065934016 1.4065934065934016) scale(2.81 2.81)" >
	<path d="M 74.319 90 H 15.681 c -3.365 0 -6.103 -2.737 -6.103 -6.103 V 6.103 C 9.578 2.738 12.315 0 15.681 0 h 58.639 c 3.365 0 6.104 2.738 6.104 6.103 v 77.794 C 80.423 87.263 77.685 90 74.319 90 z M 15.681 2 c -2.262 0 -4.103 1.841 -4.103 4.103 v 77.794 c 0 2.262 1.841 4.103 4.103 4.103 h 58.639 c 2.263 0 4.104 -1.841 4.104 -4.103 V 6.103 C 78.423 3.841 76.582 2 74.319 2 H 15.681 z" style="stroke: none; stroke-width: 1; stroke-dasharray: none; stroke-linecap: butt; stroke-linejoin: miter; stroke-miterlimit: 10; fill: rgb(0,0,0); fill-rule: nonzero; opacity: 1;" transform=" matrix(1 0 0 1 0 0) " stroke-linecap="round" />
	<path d="M 45.335 30.393 c -4.013 0 -7.278 -3.265 -7.278 -7.278 v -3.662 c 0 -4.013 3.265 -7.278 7.278 -7.278 c 4.014 0 7.278 3.265 7.278 7.278 v 3.662 C 52.613 27.128 49.349 30.393 45.335 30.393 z M 45.335 14.175 c -2.911 0 -5.278 2.368 -5.278 5.278 v 3.662 c 0 2.911 2.368 5.278 5.278 5.278 c 2.91 0 5.278 -2.368 5.278 -5.278 v -3.662 C 50.613 16.542 48.245 14.175 45.335 14.175 z" style="stroke: none; stroke-width: 1; stroke-dasharray: none; stroke-linecap: butt; stroke-linejoin: miter; stroke-miterlimit: 10; fill: rgb(0,0,0); fill-rule: nonzero; opacity: 1;" transform=" matrix(1 0 0 1 0 0) " stroke-linecap="round" />
	<path d="M 54.828 45.424 H 35.841 c -0.552 0 -1 -0.448 -1 -1 v -5.538 c 0 -5.786 4.708 -10.494 10.494 -10.494 s 10.493 4.708 10.493 10.494 v 5.538 C 55.828 44.977 55.381 45.424 54.828 45.424 z M 36.841 43.424 h 16.987 v -4.538 c 0 -4.684 -3.81 -8.494 -8.493 -8.494 s -8.494 3.81 -8.494 8.494 V 43.424 z" style="stroke: none; stroke-width: 1; stroke-dasharray: none; stroke-linecap: butt; stroke-linejoin: miter; stroke-miterlimit: 10; fill: rgb(0,0,0); fill-rule: nonzero; opacity: 1;" transform=" matrix(1 0 0 1 0 0) " stroke-linecap="round" />
	<path d="M 69.945 57.825 H 20.055 c -0.552 0 -1 -0.447 -1 -1 s 0.448 -1 1 -1 h 49.891 c 0.553 0 1 0.447 1 1 S 70.498 57.825 69.945 57.825 z" style="stroke: none; stroke-width: 1; stroke-dasharray: none; stroke-linecap: butt; stroke-linejoin: miter; stroke-miterlimit: 10; fill: rgb(0,0,0); fill-rule: nonzero; opacity: 1;" transform=" matrix(1 0 0 1 0 0) " stroke-linecap="round" />
	<path d="M 69.945 67.825 H 20.055 c -0.552 0 -1 -0.447 -1 -1 s 0.448 -1 1 -1 h 49.891 c 0.553 0 1 0.447 1 1 S 70.498 67.825 69.945 67.825 z" style="stroke: none; stroke-width: 1; stroke-dasharray: none; stroke-linecap: butt; stroke-linejoin: miter; stroke-miterlimit: 10; fill: rgb(0,0,0); fill-rule: nonzero; opacity: 1;" transform=" matrix(1 0 0 1 0 0) " stroke-linecap="round" />
	<path d="M 69.945 77.825 H 20.055 c -0.552 0 -1 -0.447 -1 -1 s 0.448 -1 1 -1 h 49.891 c 0.553 0 1 0.447 1 1 S 70.498 77.825 69.945 77.825 z" style="stroke: none; stroke-width: 1; stroke-dasharray: none; stroke-linecap: butt; stroke-linejoin: miter; stroke-miterlimit: 10; fill: rgb(0,0,0); fill-rule: nonzero; opacity: 1;" transform=" matrix(1 0 0 1 0 0) " stroke-linecap="round" />
</g>
</svg>