<svg xmlns="http://www.w3.org/2000/svg" xmlns:xlink="http://www.w3.org/1999/xlink" version="1.1" width="256" height="256" viewBox="0 0 256 256" xml:space="preserve">

<defs>
</defs>
<g style="stroke: none; stroke-width: 0; stroke-dasharray: none; stroke-linecap: butt; stroke-linejoin: miter; stroke-miterlimit: 10; fill: none; fill-rule: nonzero; opacity: 1;" transform="translate(1.4065934065934016 1.4065934065934016) scale(2.81 2.81)" >
	<path d="M 45 45.247 c -9.765 0 -17.709 -7.944 -17.709 -17.709 v -9.829 C 27.291 7.944 35.235 0 45 0 s 17.709 7.944 17.709 17.709 v 9.829 C 62.709 37.303 54.765 45.247 45 45.247 z M 45 2 c -8.662 0 -15.709 7.047 -15.709 15.709 v 9.829 c 0 8.662 7.047 15.709 15.709 15.709 S 60.709 36.2 60.709 27.538 v -9.829 C 60.709 9.047 53.662 2 45 2 z" style="stroke: none; stroke-width: 1; stroke-dasharray: none; stroke-linecap: butt; stroke-linejoin: miter; stroke-miterlimit: 10; fill: rgb(0,0,0); fill-rule: nonzero; opacity: 1;" transform=" matrix(1 0 0 1 0 0) " stroke-linecap="round" />
	<path d="M 45 79.902 c -0.377 0 -0.722 -0.212 -0.893 -0.549 L 29.001 49.476 c -0.249 -0.493 -0.051 -1.095 0.441 -1.344 c 0.492 -0.251 1.094 -0.053 1.344 0.441 L 45 76.687 l 14.214 -28.113 c 0.249 -0.493 0.852 -0.691 1.344 -0.441 c 0.493 0.249 0.69 0.851 0.441 1.344 L 45.893 79.354 C 45.722 79.69 45.377 79.902 45 79.902 z" style="stroke: none; stroke-width: 1; stroke-dasharray: none; stroke-linecap: butt; stroke-linejoin: miter; stroke-miterlimit: 10; fill: rgb(0,0,0); fill-rule: nonzero; opacity: 1;" transform=" matrix(1 0 0 1 0 0) " stroke-linecap="round" />
	<path d="M 71.292 90 H 18.708 c -0.552 0 -1 -0.447 -1 -1 V 70.539 c 0 -8.874 4.339 -17.225 11.607 -22.338 c 0.451 -0.317 1.075 -0.21 1.393 0.243 c 0.318 0.451 0.209 1.075 -0.243 1.394 c -6.736 4.738 -10.758 12.478 -10.758 20.701 V 88 h 50.584 V 70.539 c 0 -8.224 -4.021 -15.963 -10.757 -20.701 c -0.452 -0.318 -0.561 -0.942 -0.243 -1.394 c 0.318 -0.452 0.941 -0.563 1.394 -0.242 c 7.268 5.112 11.606 13.463 11.606 22.337 V 89 C 72.292 89.553 71.845 90 71.292 90 z" style="stroke: none; stroke-width: 1; stroke-dasharray: none; stroke-linecap: butt; stroke-linejoin: miter; stroke-miterlimit: 10; fill: rgb(0,0,0); fill-rule: nonzero; opacity: 1;" transform=" matrix(1 0 0 1 0 0) " stroke-linecap="round" />
	<path d="M 44.648 70.01 c -0.372 0 -0.713 -0.207 -0.886 -0.536 l -4.38 -8.366 c -0.114 -0.217 -0.144 -0.468 -0.085 -0.705 l 2.884 -11.624 c 0.111 -0.445 0.511 -0.759 0.971 -0.759 h 2.992 c 0.46 0 0.86 0.313 0.971 0.759 l 2.885 11.624 c 0.059 0.237 0.028 0.488 -0.085 0.705 l -4.38 8.366 C 45.361 69.803 45.02 70.01 44.648 70.01 z M 41.33 60.516 l 3.318 6.338 l 3.319 -6.338 L 45.361 50.02 h -1.427 L 41.33 60.516 z" style="stroke: none; stroke-width: 1; stroke-dasharray: none; stroke-linecap: butt; stroke-linejoin: miter; stroke-miterlimit: 10; fill: rgb(0,0,0); fill-rule: nonzero; opacity: 1;" transform=" matrix(1 0 0 1 0 0) " stroke-linecap="round" />
</g>
</svg>