<svg xmlns="http://www.w3.org/2000/svg" xmlns:xlink="http://www.w3.org/1999/xlink" viewBox="0 0 195.54 264.99"><defs><style>.cls-1{isolation:isolate;}.cls-2{fill:url(#linear-gradient);}.cls-3{fill:url(#linear-gradient-2);}.cls-4{fill:url(#linear-gradient-3);}.cls-5{fill:url(#linear-gradient-4);}.cls-6{fill:url(#linear-gradient-5);}.cls-7{fill:url(#linear-gradient-6);}.cls-8{fill:url(#linear-gradient-7);}.cls-10,.cls-11,.cls-12,.cls-13,.cls-14,.cls-15,.cls-16,.cls-17,.cls-9{mix-blend-mode:multiply;}.cls-9{fill:url(#linear-gradient-8);}.cls-10{fill:url(#linear-gradient-9);}.cls-11{fill:url(#linear-gradient-10);}.cls-12{fill:url(#linear-gradient-11);}.cls-13{fill:url(#linear-gradient-12);}.cls-14{fill:url(#linear-gradient-13);}.cls-15{fill:url(#linear-gradient-14);}.cls-16{fill:url(#linear-gradient-15);}.cls-17{fill:url(#linear-gradient-16);}</style><linearGradient id="linear-gradient" x1="87.55" y1="-9.39" x2="98.03" y2="77.93" gradientUnits="userSpaceOnUse"><stop offset="0.19" stop-color="#d64545"/><stop offset="0.96" stop-color="#fda158"/><stop offset="1" stop-color="#ffa659"/></linearGradient><linearGradient id="linear-gradient-2" x1="79.3" y1="91.17" x2="95.38" y2="224.99" gradientTransform="translate(26 -13.55) rotate(8.91)" xlink:href="#linear-gradient"/><linearGradient id="linear-gradient-3" x1="144.12" y1="220.28" x2="117.57" y2="81.38" gradientUnits="userSpaceOnUse"><stop offset="0" stop-color="#ff3e54"/><stop offset="0.66" stop-color="#ff99a2"/><stop offset="1" stop-color="#ffcbcc"/></linearGradient><linearGradient id="linear-gradient-4" x1="123.25" y1="53.9" x2="147.17" y2="253.02" xlink:href="#linear-gradient"/><linearGradient id="linear-gradient-5" x1="195.46" y1="188.02" x2="64.74" y2="277.89" xlink:href="#linear-gradient-3"/><linearGradient id="linear-gradient-6" x1="-4.04" y1="184.31" x2="152.81" y2="81.41" xlink:href="#linear-gradient-3"/><linearGradient id="linear-gradient-7" x1="115.51" y1="250.16" x2="-11.86" y2="158.94" gradientUnits="userSpaceOnUse"><stop offset="0" stop-color="#d64545"/><stop offset="0.95" stop-color="#fda158"/><stop offset="1" stop-color="#ffa659"/></linearGradient><linearGradient id="linear-gradient-8" x1="143.59" y1="88.86" x2="49.29" y2="248.89" gradientTransform="translate(26 -13.55) rotate(8.91)" gradientUnits="userSpaceOnUse"><stop offset="0" stop-color="#7b728c"/><stop offset="1" stop-color="#ffa659" stop-opacity="0"/></linearGradient><linearGradient id="linear-gradient-9" x1="161" y1="91.14" x2="75.03" y2="237.02" xlink:href="#linear-gradient-8"/><linearGradient id="linear-gradient-10" x1="55.82" y1="57.93" x2="127.6" y2="107.59" xlink:href="#linear-gradient-8"/><linearGradient id="linear-gradient-11" x1="211.45" y1="132.82" x2="126.18" y2="277.51" xlink:href="#linear-gradient-8"/><linearGradient id="linear-gradient-12" x1="32.2" y1="301.66" x2="19.27" y2="117.28" xlink:href="#linear-gradient-8"/><linearGradient id="linear-gradient-13" x1="59.08" y1="76.4" x2="56.13" y2="15.62" gradientTransform="matrix(1, 0, 0, 1, 0, 0)" xlink:href="#linear-gradient-8"/><linearGradient id="linear-gradient-14" x1="82.67" y1="56.24" x2="82.45" y2="4.08" gradientTransform="matrix(1, 0, 0, 1, 0, 0)" xlink:href="#linear-gradient-8"/><linearGradient id="linear-gradient-15" x1="145.07" y1="76.4" x2="142.12" y2="15.62" gradientTransform="matrix(-1, 0, 0, 1, 279.08, 0)" xlink:href="#linear-gradient-8"/><linearGradient id="linear-gradient-16" x1="168.66" y1="56.24" x2="168.43" y2="4.08" gradientTransform="matrix(-1, 0, 0, 1, 279.08, 0)" xlink:href="#linear-gradient-8"/></defs><g class="cls-1"><g id="katman_2" data-name="katman 2"><g id="OBJECTS"><path class="cls-2" d="M148.14,33.76C135,48.39,126.19,43.11,124.7,20.09,116.11,41.55,102.45,32.39,96.55,0,90.65,32.39,77,41.55,68.4,20.09c-1.48,23-10.34,28.3-23.44,13.67,6.78,18,4.85,32.91-3.09,37.88a110.22,110.22,0,0,1,109.36,0C143.29,66.68,141.33,51.76,148.14,33.76ZM73.07,50a3.39,3.39,0,1,1,3.39-3.38A3.38,3.38,0,0,1,73.07,50Zm23.48,0c-1-5.82-3.11-8-8-9.27,4.94-1.3,7-3.44,8-9.25,1,5.81,3.1,8,8.06,9.25C99.65,42.05,97.57,44.18,96.55,50ZM120,50a3.39,3.39,0,1,1,3.38-3.38A3.39,3.39,0,0,1,120,50Z"/><path class="cls-3" d="M91.6,223.86c4.63-5.21,2.36-14.32-5.76-17.83s-18-1-22.19-1.3c-4.95-.39-7.47-3.67-6.82-7.4.52-3,2.48-9.53,2.93-12.7.5-3.67-2-5.58-1.67-8.3.23-1.7,1.79-2.63,3.65-3.07-1.92-.94-3.17-2.34-2.64-4.74.73-3.3,4.77-6.82,5.26-9.9.81-5.18-4.56-8.07-3.45-12.05,1.16-4.14,12.15-4.69,20.55-9.3,8.79-4.81,4.43-19.84,15.85-32.27-5.56,12.17-4.51,26.67,3.28,44.2,3.71,8.32,12.53,22.15,14.72,33C118.47,197.71,112.75,216.57,91.6,223.86Z"/><path class="cls-4" d="M128.73,229.68c34.51-60.63-36.14-85.92-21-129.89,1,18,23.84,35.92,37.22,56.65C164.23,186.32,157.73,212.68,128.73,229.68Z"/><path class="cls-5" d="M194.35,182.35a97.6,97.6,0,0,1-51,71.34c27.41-21.92,38.39-52.74,36.45-81.75v0a96,96,0,0,0-10.46-37.76c-12-23-33.31-40.5-56.81-46.52a67.53,67.53,0,0,0-44.23,3.25,95.26,95.26,0,0,1,87.72-1c1.5.73,3,1.52,4.47,2.35h0A97.76,97.76,0,0,1,194.35,182.35Z"/><path class="cls-6" d="M143.36,253.69l0,0A98,98,0,0,1,54.64,255c49.32,18.73,93-10.82,113.28-46.31,6.93-12.12,11.13-24.91,11.89-36.73C181.75,201,170.77,231.77,143.36,253.69Z"/><path class="cls-7" d="M160.5,92.24C128.74,74.6,94.85,76.85,68.31,90.88A96.15,96.15,0,0,0,40,113.53c-27.1,32-31.19,81.27-1.46,110.07C18.29,208.45-2.8,180.92,1.07,153q0-.44.12-.87A97.76,97.76,0,0,1,160.5,92.24Z"/><path class="cls-8" d="M86,252.09c-21.83,4.35-52.65-7.33-67.2-27.29A97.43,97.43,0,0,1,1.06,153c-3.86,28,17.23,55.49,37.49,70.65a73,73,0,0,0,18,10.23c26.72,9.71,57.9,7.33,68.41-24.43C123.29,235,105.42,248.2,86,252.09Z"/><path class="cls-9" d="M91.6,223.86c16-12.75,14.93-34.7,6.28-57.06-8.28-21.42-12.22-47.94-.57-61.8-5.56,12.17-4.51,26.67,3.28,44.2,3.71,8.32,12.53,22.15,14.72,33C118.47,197.71,112.75,216.57,91.6,223.86Z"/><path class="cls-10" d="M128.73,229.68c34.51-60.63-36.14-85.92-21-129.89C99.64,132.49,183.77,181.58,128.73,229.68Z"/><path class="cls-11" d="M156,89.89c-10.19-4.34-27.34-6.21-43.49-2.26a67.53,67.53,0,0,0-44.23,3.25A95.26,95.26,0,0,1,156,89.89Z"/><path class="cls-12" d="M143.36,253.69c9.15-7.5,19.82-25.79,24.56-45,6.93-12.12,11.13-24.91,11.89-36.73C181.75,201,170.77,231.77,143.36,253.69Z"/><path class="cls-13" d="M38.55,223.6C18.29,208.45-2.8,180.92,1.07,153q0-.44.12-.87a97.47,97.47,0,0,1,7.1-24.28C4.82,174.19,20.14,209,38.55,223.6Z"/><path class="cls-14" d="M68.4,20.09C70.33,52.81,55.07,52,45,33.76,58.06,48.39,66.92,43.11,68.4,20.09Z"/><path class="cls-15" d="M96.55,0C92.1,40.53,74.63,46.72,68.4,20.09,77,41.55,90.65,32.39,96.55,0Z"/><path class="cls-16" d="M124.7,20.09C122.77,52.81,138,52,148.14,33.76,135,48.39,126.18,43.11,124.7,20.09Z"/><path class="cls-17" d="M96.55,0C101,40.53,118.46,46.72,124.7,20.09,116.11,41.55,102.45,32.39,96.55,0Z"/></g></g></g></svg>