<?xml version="1.0" encoding="utf-8"?>
<!-- Generator: Adobe Illustrator 25.4.1, SVG Export Plug-In . SVG Version: 6.00 Build 0)  -->
<svg version="1.1" id="katman_1" xmlns="http://www.w3.org/2000/svg" xmlns:xlink="http://www.w3.org/1999/xlink" x="0px" y="0px"
	 viewBox="0 0 1827.5 2123.5" style="enable-background:new 0 0 1827.5 2123.5;" xml:space="preserve">
<style type="text/css">
	.st0{clip-path:url(#SVGID_00000147184707851393191290000002692184031620742562_);}
	.st1{fill:url(#SVGID_00000135657481732599943290000000998984592005046952_);}
	.st2{clip-path:url(#SVGID_00000034081879357203020620000000629105086795368871_);}
	.st3{fill:url(#SVGID_00000071549962113902622100000001045048286094944416_);}
	.st4{clip-path:url(#SVGID_00000012466610443503390830000017554171087361324725_);}
	.st5{fill:url(#SVGID_00000127732261788478363530000003368046541400286384_);}
	.st6{clip-path:url(#SVGID_00000044886975089293592660000000188095652800673207_);}
	.st7{fill:url(#SVGID_00000164493537557398614440000005043833365715217280_);}
	.st8{fill-rule:evenodd;clip-rule:evenodd;fill:#FFCE4B;}
	.st9{fill-rule:evenodd;clip-rule:evenodd;fill:#FF8BC7;}
	.st10{fill-rule:evenodd;clip-rule:evenodd;fill:#51F4E9;}
	.st11{fill-rule:evenodd;clip-rule:evenodd;fill:#102770;}
	.st12{fill:#FFFFFF;}
</style>
<g id="katman_2_00000008830920167506727580000011591272973796460219_">
	<g id="Layer_1">
		<g>
			<defs>
				<polygon id="SVGID_1_" points="913.7,230.3 683.4,0 453.1,230.3 683.4,460.6 913.7,690.9 1144,921.2 1374.3,1151.5 
					1604.6,921.2 1374.3,690.9 1144,460.6 				"/>
			</defs>
			<clipPath id="SVGID_00000067918955686590138040000001429596755869264304_">
				<use xlink:href="#SVGID_1_"  style="overflow:visible;"/>
			</clipPath>
			<g style="clip-path:url(#SVGID_00000067918955686590138040000001429596755869264304_);">
				
					<linearGradient id="SVGID_00000086670776407617584540000017070058507580253357_" gradientUnits="userSpaceOnUse" x1="515.3572" y1="2107.6575" x2="1468.9673" y2="1068.8574" gradientTransform="matrix(1 0 0 -1 0 2124)">
					<stop  offset="0" style="stop-color:#FFCE4B"/>
					<stop  offset="1" style="stop-color:#D311DA"/>
				</linearGradient>
				
					<rect x="453.1" style="fill:url(#SVGID_00000086670776407617584540000017070058507580253357_);" width="1151.5" height="1151.5"/>
			</g>
		</g>
		<g>
			<defs>
				<polygon id="SVGID_00000044900463651008573440000010691482184085682872_" points="913.7,1151.5 683.4,1381.8 913.7,1612.1 
					1144,1381.8 1374.3,1151.5 1144,921.2 				"/>
			</defs>
			<clipPath id="SVGID_00000067924093836433708930000004227822287305498811_">
				<use xlink:href="#SVGID_00000044900463651008573440000010691482184085682872_"  style="overflow:visible;"/>
			</clipPath>
			<g style="clip-path:url(#SVGID_00000067924093836433708930000004227822287305498811_);">
				
					<linearGradient id="SVGID_00000070097722586693269950000007333311732443999628_" gradientUnits="userSpaceOnUse" x1="1254.5511" y1="1261.2194" x2="861.2411" y2="557.3894" gradientTransform="matrix(1 0 0 -1 0 2124)">
					<stop  offset="0" style="stop-color:#003780"/>
					<stop  offset="1" style="stop-color:#A714C8"/>
				</linearGradient>
				
					<rect x="683.4" y="921.2" style="fill:url(#SVGID_00000070097722586693269950000007333311732443999628_);" width="690.9" height="690.9"/>
			</g>
		</g>
		<g>
			<defs>
				<polygon id="SVGID_00000037694001393017108900000001895506613656951713_" points="683.4,921.2 453.1,690.9 222.9,921.2 
					453.1,1151.5 683.4,1381.8 913.7,1151.5 				"/>
			</defs>
			<clipPath id="SVGID_00000173142694437292670590000014940017523020449937_">
				<use xlink:href="#SVGID_00000037694001393017108900000001895506613656951713_"  style="overflow:visible;"/>
			</clipPath>
			<g style="clip-path:url(#SVGID_00000173142694437292670590000014940017523020449937_);">
				
					<linearGradient id="SVGID_00000156565426969776285070000004720650549306303636_" gradientUnits="userSpaceOnUse" x1="745.2934" y1="833.2624" x2="331.2634" y2="1428.3724" gradientTransform="matrix(1 0 0 -1 0 2124)">
					<stop  offset="0" style="stop-color:#00478F"/>
					<stop  offset="1" style="stop-color:#27CABF"/>
				</linearGradient>
				
					<rect x="222.9" y="690.9" style="fill:url(#SVGID_00000156565426969776285070000004720650549306303636_);" width="690.9" height="690.9"/>
			</g>
		</g>
		<g>
			<defs>
				<polygon id="SVGID_00000062154852782987469380000003026743720556670612_" points="453.1,690.9 683.4,921.2 913.7,690.9 				"/>
			</defs>
			<clipPath id="SVGID_00000084518356050278355650000017049142148339481252_">
				<use xlink:href="#SVGID_00000062154852782987469380000003026743720556670612_"  style="overflow:visible;"/>
			</clipPath>
			<g style="clip-path:url(#SVGID_00000084518356050278355650000017049142148339481252_);">
				
					<linearGradient id="SVGID_00000169516287061070522040000011065733172675646600_" gradientUnits="userSpaceOnUse" x1="649.186" y1="1228.6515" x2="827.786" y2="1694.4515" gradientTransform="matrix(1 0 0 -1 0 2124)">
					<stop  offset="0" style="stop-color:#003780"/>
					<stop  offset="1" style="stop-color:#36C8CC"/>
				</linearGradient>
				
					<rect x="453.1" y="690.9" style="fill:url(#SVGID_00000169516287061070522040000011065733172675646600_);" width="460.6" height="230.3"/>
			</g>
		</g>
		<g>
			<polygon class="st8" points="568.3,115.2 1489.5,1036.3 1604.6,921.2 1374.3,690.9 1144,460.6 913.7,230.3 683.4,0 			"/>
		</g>
		<g>
			<polygon class="st9" points="1259.2,1036.3 798.6,1496.9 913.7,1612.1 1144,1381.8 1374.3,1151.5 			"/>
		</g>
		<g>
			<polygon class="st10" points="338,806 798.6,1266.6 913.7,1151.5 683.4,921.2 453.1,690.9 			"/>
		</g>
		<g>
			<polygon class="st11" points="743,861.6 453.1,690.9 683.4,921.2 			"/>
		</g>
		<g>
			<polygon class="st11" points="913.7,1151.5 769.9,1238 626.2,1324.5 683.4,1381.8 798.6,1266.6 			"/>
		</g>
		<g>
			<polygon class="st11" points="1102.5,962.7 1238.4,1057.1 1374.3,1151.5 1259.2,1036.3 1144,921.2 			"/>
		</g>
		<path class="st12" d="M1827.5,1891.8h-132.4v-38.4h120.1v-58.4h-120.1v-36.3h127.3v-60.2h-198.1v253.9h203.1V1891.8z
			 M1447.3,1952.3h71.5v-194.8h74.4v-59.1h-219.8v59.1h74V1952.3z M1278.7,1850.4h-64.9l32.7-80.9L1278.7,1850.4z M1319.7,1952.3
			h76.9L1283,1698.4h-72.6l-113.9,253.9h76.2l16.7-41.7H1303L1319.7,1952.3z M1056.3,1872.2c-18.1,18.5-42.8,25.8-59.8,25.8
			c-50.1,0-67.5-37.4-67.8-70.4s18.9-72.9,67.8-72.9c17,0,35.9,4.7,54,22.1l44.2-43.5c-28.7-27.9-61.7-40.6-98.3-40.6
			c-95.4,0-139.3,69.3-138.9,134.6c0.4,68.9,39.2,131.7,138.9,131.7c38.5,0,73.3-11.2,101.9-39.5L1056.3,1872.2z M819.8,1952.3
			v-253.9h-71.5v253.9L819.8,1952.3z M523.4,1698.4v253.9h193.3v-61H595.3v-193L523.4,1698.4z M482.8,1891.8H350.4v-38.4h120.1
			v-58.4H350.4v-36.3h127.3v-60.2H279.7v253.9h203.1V1891.8z M71.1,1758.3h37.7c43.9,0,61.7,29.7,61.7,64.6s-16,68.9-61.7,68.9H71.1
			V1758.3z M0,1698.4v253.9h108.8c91,0,132.8-58.8,132.8-128.8s-43.2-125.1-132.8-125.1H0z"/>
		<path class="st12" d="M1794.8,2108.6h-39.6v-15.9h38.2v-12.4h-38.2V2064h39.6v-12.9h-52.8v70.6h52.8V2108.6z M1610.8,2051.1
			c-11.1-0.1-22.2,0-33.2,0v70.6h13.3v-20.8h19.9C1645.4,2100.9,1645.3,2051.1,1610.8,2051.1L1610.8,2051.1z M1590.9,2063.8h19.9
			c16.9,0,17,25,0,25h-19.9V2063.8z M1450.3,2096h-26.2l13.1-30.1L1450.3,2096z M1461.6,2121.7h14.5l-31.6-70.6h-14.5l-31.6,70.6
			h14.4l6-13.3h36.9L1461.6,2121.7z M1296.5,2121.7v-70.4h-13.2v29.7h-34.7v-29.7h-13.3v70.4h13.3v-28.4h34.7v28.4L1296.5,2121.7z
			 M1126.2,2062.8c-5.3-10.9-16.7-14-27.7-14c-13,0.1-27.3,6-27.3,20.6c0,15.8,13.3,19.6,27.7,21.4c9.4,1,16.3,3.7,16.3,10.4
			c0,7.7-7.9,10.6-16.2,10.6c-8.6,0-16.7-3.4-19.8-11.2l-11.1,5.7c5.2,12.9,16.3,17.3,30.7,17.3c15.7,0,29.6-6.8,29.6-22.5
			c0-16.8-13.7-20.6-28.4-22.5c-8.5-1-15.7-2.7-15.7-8.9c0-5.2,4.7-9.4,14.6-9.4c7.7,0,14.3,3.8,16.7,7.9L1126.2,2062.8z
			 M929.7,2094.9l-34.5-43.8h-10.8v70.6h13.3v-47.6l37.1,47.6h8.3v-70.6h-13.3L929.7,2094.9z M752.4,2063.4
			c8.4,0,12.1,5.6,12.1,11.3s-3.6,11.3-12.1,11.3h-20.2v-22.7L752.4,2063.4z M781.3,2120.8l-21.3-24.1c13.4-2.7,17.8-12.5,17.8-22.2
			c0-12.2-8.8-23.3-25.4-23.4c-11.2,0.1-22.4,0-33.5,0v70.6h13.3v-23.6H745l20.5,23.6h15.8L781.3,2120.8z M611.9,2108.6h-39.6v-15.9
			h38.2v-12.4h-38.2V2064h39.6v-12.9h-52.8v70.6h52.8L611.9,2108.6z M404.2,2063.7h14.5c15.3,0,21.8,11,22.1,22
			c0.3,11.5-6,23.2-22.1,23.2h-14.5V2063.7z M418.7,2051.1H391v70.6h27.7c24.7,0,35.6-18,35.3-35.9
			C453.7,2068.3,442.9,2051.1,418.7,2051.1L418.7,2051.1z M249.4,2061.8c16.6,0,23.3,13.3,23.1,25.2c-0.2,11.6-6.4,24.1-23.1,24.1
			s-22.9-12.4-23.2-24C225.9,2075.2,232.8,2061.8,249.4,2061.8L249.4,2061.8z M249.4,2049.7c-24.4,0-36.3,18.6-36.3,37.2
			s11.5,36.4,36.3,36.4s36-18.2,36.2-36.5C285.8,2068.4,273.7,2049.7,249.4,2049.7L249.4,2049.7z M93.9,2121.7h13.3v-70.4H92
			l-22.1,30.3l-22.1-30.3H32.6v70.4h13.3v-51.2l22.5,30.7h2.6l23-30.6L93.9,2121.7z"/>
	</g>
</g>
</svg>
