<svg xmlns="http://www.w3.org/2000/svg" xmlns:xlink="http://www.w3.org/1999/xlink" version="1.1" width="256" height="256" viewBox="0 0 256 256" xml:space="preserve">

<defs>
</defs>
<g style="stroke: none; stroke-width: 0; stroke-dasharray: none; stroke-linecap: butt; stroke-linejoin: miter; stroke-miterlimit: 10; fill: none; fill-rule: nonzero; opacity: 1;" transform="translate(1.4065934065934016 1.4065934065934016) scale(2.81 2.81)" >
	<path d="M 56 2 c 4.227 0 8.057 0.232 10.345 0.432 v 10.509 l -6.424 0.003 c -8.804 0 -9.933 5.234 -9.933 9.793 v 10.22 v 2 h 2 h 13.615 L 64.05 47.004 H 51.988 h -2 v 2 V 88 H 37.424 V 49.004 v -2 h -2 H 23.655 V 34.957 h 11.769 h 2 v -2 V 21.148 C 37.424 9.158 44.368 2 56 2 M 56 0 C 43.786 0 35.424 7.456 35.424 21.148 v 11.809 H 21.655 v 16.046 h 13.769 V 90 h 16.564 V 49.004 h 13.821 l 2.069 -16.046 h -15.89 v -10.22 c 0 -4.635 1.287 -7.793 7.933 -7.793 l 8.424 -0.004 V 0.63 C 66.879 0.436 61.851 0 56 0 L 56 0 z" style="stroke: none; stroke-width: 1; stroke-dasharray: none; stroke-linecap: butt; stroke-linejoin: miter; stroke-miterlimit: 10; fill: rgb(255,255,255); fill-rule: nonzero; opacity: 1;" transform=" matrix(1 0 0 1 0 0) " stroke-linecap="round" />
</g>
</svg>